<?xml version="1.0" standalone="no"?>
<!DOCTYPE svg PUBLIC "-//W3C//DTD SVG 20010904//EN"
 "http://www.w3.org/TR/2001/REC-SVG-20010904/DTD/svg10.dtd">
<svg version="1.0" xmlns="http://www.w3.org/2000/svg"
 width="700.000000pt" height="700.000000pt" viewBox="0 0 700.000000 700.000000"
 preserveAspectRatio="xMidYMid meet">
<metadata>
Created by potrace 1.14, written by Peter Selinger 2001-2017
</metadata>
<g transform="translate(0.000000,700.000000) scale(0.100000,-0.100000)"
fill="#000000" stroke="none">
<path d="M3426 6345 c-84 -22 -122 -59 -264 -255 -72 -102 -139 -193 -147
-203 -8 -9 -15 -19 -15 -21 0 -4 -281 -399 -348 -491 -17 -22 -206 -287 -422
-590 -215 -302 -399 -559 -408 -570 -9 -11 -19 -25 -22 -30 -8 -17 -412 -579
-680 -947 -135 -185 -252 -346 -260 -358 -8 -12 -86 -119 -173 -238 -87 -119
-182 -251 -212 -292 -29 -41 -94 -131 -144 -200 -116 -159 -142 -239 -107
-324 19 -46 72 -104 115 -125 20 -10 158 -58 306 -106 149 -47 308 -99 355
-115 109 -36 731 -239 1585 -517 110 -36 315 -103 455 -148 400 -131 413 -135
445 -135 16 0 62 11 100 24 39 14 201 68 360 120 160 52 432 141 605 197 173
57 317 103 320 104 3 0 106 34 230 75 124 41 227 74 230 75 3 0 154 49 335
109 537 176 775 253 861 281 106 33 155 71 204 155 48 83 56 116 40 167 -10
31 -146 234 -224 334 -12 15 -28 37 -38 50 -9 13 -39 56 -67 94 -28 39 -77
106 -109 150 -33 44 -209 287 -392 540 -183 253 -350 483 -370 510 -21 28 -70
95 -109 150 -39 55 -80 111 -90 125 -11 14 -34 46 -53 72 -47 67 -239 333
-439 608 -94 129 -189 262 -211 295 -23 33 -44 62 -48 65 -3 3 -70 95 -150
205 -189 264 -312 434 -375 520 -28 39 -127 176 -220 305 -92 129 -184 252
-204 272 -57 62 -153 86 -245 63z m199 -851 c66 -91 126 -173 133 -183 34 -44
962 -1324 962 -1327 0 -2 -30 7 -67 20 -38 13 -250 84 -473 156 -223 73 -445
145 -495 162 -63 21 -111 30 -160 31 -74 1 -28 15 -1025 -313 -52 -17 -114
-37 -138 -45 l-42 -13 43 61 c24 34 75 107 112 162 38 55 73 105 78 110 7 9
193 273 291 415 17 25 99 141 181 259 83 117 168 239 190 270 213 305 281 400
285 400 3 1 59 -74 125 -165z m-388 -2989 c0 -690 -2 -1255 -4 -1255 -7 0
-2348 781 -2351 785 -3 3 194 278 228 318 6 7 60 80 120 162 281 383 345 471
353 480 4 6 54 72 110 148 l102 139 715 238 c393 132 718 239 721 240 3 0 6
-565 6 -1255z m791 1170 c141 -46 356 -116 477 -155 121 -39 229 -75 240 -80
11 -5 123 -42 249 -82 l228 -73 53 -70 c44 -59 480 -664 580 -805 17 -25 85
-118 149 -208 65 -90 116 -165 114 -168 -7 -6 -2321 -777 -2338 -778 -13 -1
-15 145 -16 1252 0 688 1 1252 3 1252 2 0 120 -38 261 -85z"/>
</g>
</svg>
